<?xml version="1.0" encoding="UTF-8"?><svg id="Layer_2" xmlns="http://www.w3.org/2000/svg" xmlns:xlink="http://www.w3.org/1999/xlink" viewBox="0 0 150.08 121.71"><defs><style>.cls-1{fill:#feca1b;}.cls-2{stroke:#000;}.cls-2,.cls-3{fill:#3761a8;stroke-miterlimit:10;}.cls-3{stroke:url(#linear-gradient);stroke-width:3px;}</style><linearGradient id="linear-gradient" x1="0" y1="60.85" x2="150.08" y2="60.85" gradientUnits="userSpaceOnUse"><stop offset="0" stop-color="#fff"/><stop offset="0" stop-color="#000"/></linearGradient></defs><g id="Layer_1-2"><path class="cls-3" d="M29.98,46.34c7.64-15.52,15.48-29.95,23.29-43.29,3.29,6.06,6.57,12.12,9.86,18.18,18.44-4.01,39.08-9.56,56.34,1.11,3.34-18.88,30.39-15.2,29.07,4.55-1.28,19.06-3.88,46.96-7.17,65.83-.37,2.11-.94,6.15-2.87,7.13-1.66.84-21.28-.91-24.48-1.55-3.12-.63-3.61-2.51-3.63-5.45-.02-2.77,5.78-31.35,3.59-31.53-2.59-.18-9.83,4.56-10.33,6.71-.33,6.61,6.93,21.99,1.79,26.75-1.76,1.63-9.34,4.42-9.87,6.2.22,5.4,9.78,15.02,1.2,17.13-3.38.83-25.35,2.9-27.29,1.73l-18.49-41.49c-2.33.03-11.89,27.35-15.53,30.45-1.66,1.41-3.59.71-19.51,1.49-5.91.29-10.71.54-13.74.7,7.47-20.22,16.6-41.95,27.78-64.67ZM128.73,18.61c-5.83,5.46-.77,17.53,8.73,13.22,10.43-4.73-1.31-20.17-8.73-13.22ZM12.98,102.35c4.88-.67,10.95.49,16,0,1.41,0,5.49-8.9,6.36-10.64,2.95-5.89,5.98-15.55,9.28-20.72,2.61-4.09,9.3-2.29,12.33.39l17.65,40.86c3.03-.96,14.07.04,14.81-2.51L51.99,20.34l-10.02,22.12c-7.61,13.32-15.15,27.64-22.39,42.99-2.85,6.04-5.55,12.01-8.1,17.9.79.21,1.14-.95,1.49-1ZM76.46,43.35l12.21,47.3c.66,3.43,8.52.04,9.32-1.28,2.49-4.12-3.84-19.78-2.31-25.31,7.87-7.67,35.63-25.78,17.15-36.56-10.82-6.32-33.92-3-45.37,1.43l4.02,16.41,4.98-1.99ZM139.47,40.35c-7.54,3.3-22.62,1.28-20.99,13l3.02-.57c1.18.77,1.03,2.76,1.07,4.06.12,4.88-5.25,33.21-4.04,34.46l14.5,1.79,1.32-1.38,5.13-51.36Z"/><path class="cls-1" d="M12.98,102.35c-.35.05-.7,1.21-1.49,1-.1-.13-.07-.46.05-.95.24-.97.51-1.69.61-1.89,7.85-15.1,14.05-31.06,22.69-45.72,4.68-7.95,10.92-19.48,17.15-34.45l37.42,89.38c-.74,2.54-11.78,1.55-14.81,2.51l-17.65-40.86c-3.04-2.67-9.72-4.48-12.33-.39-3.3,5.17-6.33,14.82-9.28,20.72-.87,1.74-4.95,10.64-6.36,10.64-5.05.49-11.12-.67-16,0ZM56.48,60.34c-1.66-4.66-3.32-9.33-4.99-13.99l-5.01,12.99,10,1Z"/><path class="cls-1" d="M76.46,43.35l-4.98,1.99-4.02-16.41c11.45-4.44,34.54-7.75,45.37-1.43,18.48,10.78-9.28,28.89-17.15,36.56-1.53,5.54,4.8,21.2,2.31,25.31-.8,1.31-8.65,4.71-9.32,1.28l-12.21-47.3ZM92.48,53.34c1.26,1.47,10.54-9.49,11.98-10.49-10.58-8.64-15.35-.85-11.98,10.49Z"/><path class="cls-1" d="M139.47,40.35l-5.13,51.36-1.32,1.38-14.5-1.79c-1.2-1.25,4.16-29.57,4.04-34.46-.03-1.31.12-3.29-1.07-4.06l-3.02.57c-1.63-11.72,13.45-9.7,20.99-13Z"/><path class="cls-1" d="M128.73,18.61c7.43-6.95,19.16,8.48,8.73,13.22-9.5,4.31-14.56-7.76-8.73-13.22Z"/><path class="cls-2" d="M56.48,60.34l-10-1,5.01-12.99c1.66,4.66,3.32,9.33,4.99,13.99Z"/><path class="cls-2" d="M92.48,53.34c-3.37-11.35,1.4-19.13,11.98-10.49-1.44,1.01-10.72,11.96-11.98,10.49Z"/></g></svg>