<?xml version="1.0" encoding="UTF-8"?><svg id="Layer_2" xmlns="http://www.w3.org/2000/svg" viewBox="0 0 139.74 128.45"><defs><style>.cls-1{fill:#5f9da0;}.cls-2{fill:#191919;}</style></defs><g id="Layer_1-2"><rect class="cls-2" x="5.87" y=".23" width="128" height="128"/><rect class="cls-2" x="5.46" y="0" width="128" height="128" rx="64" ry="64"/><path class="cls-1" d="M18.53,89.89c0-6.46.76-10.46.76-16.32,0-3.34-2.14-6.69-10.72-6.81v-6.26c8.58-.12,10.72-3.47,10.72-6.81,0-5.63-.76-10.09-.76-16.32,0-9.49,4.48-12.38,14.13-12.38h5.3v5.64h-3.54c-7.03,0-8.57,1.81-8.57,7.22,0,4.92.4,10,.4,15.44,0,6.34-1.92,9.08-7.29,10.16v.36c5.36,1.08,7.29,3.82,7.29,10.16,0,5.78-.4,10.29-.4,15.44,0,5.41,1.53,7.22,8.57,7.22h3.54v5.64h-5.3c-9.65,0-14.13-2.89-14.13-12.38Z"/><path class="cls-1" d="M33.41,66.6c0-14.4,7.96-23.2,16.43-23.2,4.27,0,7.39,1.9,10.3,5.18h.21l-.42-7.44v-15.98h8.8v63.45h-7.18l-.67-5.16h-.26c-2.9,3.45-7.06,6.24-11.26,6.24-9.61,0-15.95-8.53-15.95-23.09ZM59.92,75.8v-19.83c-2.68-2.93-5.27-3.98-7.96-3.98-5.22,0-9.55,5.26-9.55,14.48s3.41,14.61,9.06,14.61c3.09,0,5.85-1.63,8.45-5.28Z"/><path class="cls-1" d="M70.42,82.86l3.84-6.62c4.46,3.5,9.56,5.6,15.63,5.6,5.18,0,7.6-2.33,7.6-5.26s-1.64-4.51-10.34-6.64c-9.97-2.47-14.4-6.63-14.4-13.35,0-7.67,5.92-13.19,16.37-13.19,6.19,0,11.84,2.87,15.63,5.83l-4.05,6.38c-3.62-2.75-7.93-4.42-12.37-4.42-4.84,0-6.84,2.21-6.84,4.9,0,3.11,2.75,4.2,9.74,5.99,11.94,3.11,15.05,6.87,15.05,13.87,0,7.59-6.19,13.72-17.55,13.72-6.98,0-13.69-3.11-18.32-6.83Z"/><path class="cls-1" d="M101.86,96.62h3.49c7,0,8.59-1.81,8.59-7.22s-.37-9.66-.37-15.44c0-6.34,1.88-9.08,7.24-10.16v-.36c-5.36-1.08-7.24-3.82-7.24-10.16,0-5.44.37-10.52.37-15.44,0-5.41-1.58-7.22-8.59-7.22h-3.49v-5.64h5.25c9.7,0,14.08,2.89,14.08,12.38,0,6.23-.74,10.69-.74,16.32,0,3.34,2.14,6.69,10.75,6.81v6.26c-8.61.12-10.75,3.47-10.75,6.81,0,5.86.74,9.86.74,16.32,0,9.49-4.38,12.38-14.08,12.38h-5.25v-5.64Z"/></g></svg>