<?xml version="1.0" encoding="UTF-8"?><svg id="Layer_2" xmlns="http://www.w3.org/2000/svg" viewBox="0 0 359 359"><defs><style>.cls-1{fill:#ee8b22;}</style></defs><g id="Layer_1-2"><rect class="cls-1" width="359" height="359"/><path d="M183.63,130.46c.44.44,1.68-.14,1.82.94.13,1.01-1.67,1.85-1.92,2.39-.23.51-.14,1.35-.29,1.92l1.22,1.47c-.06,1.01-.12,2.31.08,3.31.02.11.57.34.66.71s-.12.6-.08.84c.15,1.04,1.39,1.82,1.75,2.83.52,1.48.63,3.8.72,5.39.2,3.4.15,7.48.57,10.89.06.51.37.85.4,1.33.22,2.97-2.11,9.33-2.31,12.97-.65,11.45.13,23.71.36,35.14-1.6,5.73.04,12.35-.36,18.33.06.73,1.76,4.22,1.7,4.55-.14.76-1.14.43-1.59.12-.77-.52-1.09-1.92-1.48-2.24-.22-.18-.93-.19-1.23-.49-.75-.74-.18-1.68-.23-2.52-.13-2.47-.01-5.39-.2-7.64-.08-.91-.49-1.65-.58-2.47-.08-.72.19-4.01-.22-4.27l-1.5-.03c-.04-.38.18-1.81-.29-1.91-.91.14-.64,1.35-1.18,1.69-.71.46-2.48-.55-2.89.15l-1.37,9.13-.38,7.41c-.07.31-1.03.26-1.34.42-.73.38-1.36,2.72-2.74,2.39-1.23-.29,1.71-4.83,1.7-5.64,0-.34-.3-.7-.3-1.14,0-.98.5-3,.57-4.2.13-2.17.75-10.01.3-11.56-.14-.46-.76-1.07-.86-1.63-.12-.65-.05-1.95-.02-2.67.21-5.51,1.06-10.49,1.7-15.86.33-2.7.12-5.53.41-8.18.11-1.04.77-2.91.74-3.83-.01-.38-.56-1.31-.69-1.95-.34-1.74-.51-3.68-.86-5.44-.43-2.18-1.49-4.93-1.29-7.11.63-6.67,1.86-13.31,2.99-19.92.79-2.28,3.52-2.73,4.23-5.13.04-.44-1.14-.98-1.11-1.69.03-.83,1.85-1.38,1.52-3.05-.15-.77-1.54-.61-1.65-1.53l.17-.43,1.54-.86c.3-2.29-.18-5.1,2.23-6.35,2.02.23.88,4.7,1.57,5.39ZM175.76,167.35c1-.6.55-1.12.57-1.81.01-.32.2-.63.18-.94-.03-.61-.58-1.84-.57-2.59-.35.07-.35.38-.39.66-.17,1.48.16,3.19.2,4.68ZM185.49,162.38c-.48-.04-.33-.05-.38.29-.11.72-.1,1.52-.24,2.24-.2,1.02-1.12,2.19-.05,3.2.61-1.85.76-3.79.67-5.73Z"/></g></svg>