<?xml version="1.0" encoding="UTF-8"?><svg id="Layer_2" xmlns="http://www.w3.org/2000/svg" viewBox="0 0 2470.81 2470.81"><defs><style>.cls-1{fill:#7270ff;}.cls-2{fill:#fff;}</style></defs><g id="Layer_2-2"><rect class="cls-1" width="2470.81" height="2470.81"/><path class="cls-2" d="M1580.35,1443.56c-8.99-9.67-20.03-15.32-33.13-16.74-4.75-.51-9.55-.56-14.3-.68-6.46-.17-12.88-1.03-19.05-3.04-18.11-5.95-31.33-17.68-39.89-34.63-4.88-9.72-6.51-20.16-6.51-30.95.04-82.53.09-165.05,0-247.58,0-14.9-1.54-29.62-5.09-44.13-2.74-11.26-6.51-22.17-11.43-32.66-4.79-10.19-10.57-19.78-17.29-28.81-9.25-12.37-19.73-23.54-31.85-33.09-7.19-5.69-14.6-11.21-22.39-16.09-9.67-6.08-20.29-10.32-31.16-13.87-11.43-3.72-23.11-6.21-35.06-7.53-21.66-2.4-43.19-1.63-64.55,2.91-18.45,3.9-35.78,10.62-51.96,20.29-12.93,7.7-24.61,17.08-35.27,27.74-13.23,13.27-24.44,28.04-32.7,44.9-1.5,3.08-3.04,5.05-6.68,4.07h-52.09c-6.29.04-12.33,1.16-18.15,3.55-20.46,8.35-33.43,29.66-29.19,53.38,2.23,12.41,8.65,22.43,18.75,29.96,8.56,6.38,18.28,9.37,28.89,9.42,12.24.04,24.48,0,36.73,0,.94,0,1.93.09,3.17.17,0,5.56.09,10.87,0,16.52h-114.24c-5.95,0-11.64.98-17.25,3-23.03,8.3-36.68,33.26-29.88,57.91,3.98,14.38,13.01,24.74,26.5,31.12,6.46,3.04,13.35,4.28,20.5,4.28h110.95c1.03,0,2.1.09,3.42.13.04,5.65.09,11.04,0,16.74h-3.55c-60.22,0-120.45-.04-180.67,0-3.77.04-7.58.3-11.26.94-8.82,1.5-16.56,5.48-23.03,11.6-12.2,11.56-17.38,25.77-15.07,42.5,1.84,13.4,8.48,24.06,19.3,32.02,8.43,6.21,17.98,9.12,28.46,9.12h104.66c46.14,0,92.24.04,138.38,0,3.25,0,6.55-.34,9.76-.77,5.18-.73,9.97-2.74,14.68-5.01,12.63-6.04,21.74-15.41,26.8-28.59,2.91-7.53,3.77-15.37,3.77-23.41v-186.97c0-7.62.9-15.07,3.42-22.26,5.52-15.75,15.88-27.61,30.26-35.87,13.44-7.75,28.08-9.67,43.27-7.79,11.9,1.5,22.64,6.16,31.72,14.04,3.85,3.34,6.98,7.45,10.32,11.3,1.54,1.84,2.91,3.9,4.19,5.95,6.76,10.74,9.59,22.51,9.59,35.14-.04,82.44-.04,164.88,0,247.32,0,11.94,1.07,23.8,3.21,35.53,2.14,11.69,5.39,22.94,9.84,33.94,7.11,17.64,17.08,33.56,29.58,47.85,20.8,23.84,45.67,41.78,75.72,52.18,11.39,3.94,23.03,6.55,34.93,8.18,11.17,1.54,22.39,1.8,33.64,1.46,6.68-.21,13.18-1.46,19.35-4.02,20.12-8.43,30.65-23.93,33-45.24h0c.64-5.86.34-11.81-.73-17.76-1.88-10.49-6.08-19.82-13.35-27.65Z"/></g></svg>