<?xml version="1.0" encoding="UTF-8"?><svg id="Layer_2" xmlns="http://www.w3.org/2000/svg" viewBox="0 0 690 690"><defs><style>.cls-1{fill:#5f9da0;}.cls-2{fill:#222;}</style></defs><g id="Layer_2-2"><rect class="cls-2" width="690" height="690"/><g id="Layer_1-2"><circle class="cls-1" cx="448.32" cy="225.37" r="34.18"/><circle class="cls-1" cx="241.68" cy="345.13" r="34.18"/><circle class="cls-1" cx="448.04" cy="464.63" r="34.18"/><path class="cls-1" d="M379.29,278.43c-36.26,0-65.66,29.4-65.66,65.66s29.4,65.66,65.66,65.66,65.66-29.4,65.66-65.66-29.4-65.66-65.66-65.66ZM379.29,388.9c-24.75,0-44.81-20.06-44.81-44.81s20.06-44.81,44.81-44.81,44.81,20.06,44.81,44.81-20.06,44.81-44.81,44.81Z"/><path class="cls-1" d="M387.02,299.03l-15.79,39.12,28.83-7.72-17.15,39.82c-.07.88.12.38.6.25,2.71-.76,5.77-2.57,8.48-3.53.39-.14,1.25-.59,1.55-.16l-18.7,18.71-6.01-25.4c2.24,2.16,3.87,5.37,6,7.56.31.32.63.95,1.04.34l7.38-27.11-24.71,7.03,13.73-48.9h14.76,0Z"/><rect class="cls-1" x="400.24" y="259.83" width="43.38" height="22.34" transform="translate(-23.73 500.9) rotate(-60)"/><rect class="cls-1" x="271.18" y="333.32" width="43.38" height="22.34"/><rect class="cls-1" x="410.1" y="395.08" width="22.34" height="43.38" transform="translate(-151.94 266.47) rotate(-30)"/></g></g></svg>