<?xml version="1.0" encoding="UTF-8"?><svg id="Layer_2" xmlns="http://www.w3.org/2000/svg" viewBox="0 0 458.73 458.73"><defs><style>.cls-1{fill:#fff;}</style></defs><g id="Layer_1-2"><rect width="458.73" height="458.73"/><path class="cls-1" d="M238.24,265.47c1.36-4.67,1.83-9.61,2.3-14.46,1.25-13.13,1.41-26.37,2.91-39.47.28-2.42,1.1-10.26,2.52-11.86,1.82-2.05,2.8,2.22,3.07,3.37,1.36,5.95,1.78,13.37,2.22,19.51.87,12.31,1.2,26.42.31,38.7-.17,2.36-.66,4.76-.69,7.12,1.49-3.74,2.83-7.54,3.86-11.44,1.32-5.02,2.58-10.66,3.51-15.76,1.23-6.74,1.19-13.76,1.73-20.6.44-5.52.84-13.86,2.4-19.02.36-1.17,1.37-3.49,2.8-1.95,1.57,1.69,2.49,11.69,2.75,14.39,1.21,12.41,1.41,24.92,2.6,37.33.46,4.75.94,9.58,2.3,14.15.39.3,1.1-3.43,1.15-3.67,2.56-13.47,2.3-28.69,3.44-42.46.44-5.27.86-12.75,2.34-17.71,1.48-4.96,3.28-1.82,4.01,1.26,1.5,6.29,1.88,14.36,2.37,20.89.92,12.39.79,26.96,3.42,38.96.05.21.59,2.79.87,2.57,1.18-4.3,1.69-8.8,2.14-13.23,1.48-14.5,1.42-29.3,3.39-43.73.25-1.84.52-3.83.94-5.64.27-1.14,1.04-4.7,2.87-3.27,1.29,1.01,2.02,6.68,2.27,8.44,1.12,8.09,1.38,16.31,2.01,24.45-.05.58-.95.74-1.3.39-.39-.38-.19-1.91-.23-2.53-.46-6.81-.85-13.71-1.7-20.48-.37-2.97-.83-5.94-1.67-8.82-.22.04-.3.28-.38.46-1.33,3.14-1.87,11.1-2.22,14.76-1.25,13.17-1.36,26.47-2.93,39.61-.27,2.26-1.05,9.43-2.36,10.95-.68.8-1.48.53-2.03-.25-1.28-1.8-2.04-9.27-2.32-11.76-1.6-14.12-1.65-28.41-3.22-42.53-.42-3.77-.87-7.62-1.99-11.25-.2-.16-.52,1.04-.57,1.19-.96,3.34-1.36,7.78-1.73,11.28-1.41,13.47-1.47,27.08-2.91,40.54-.29,2.67-1.06,10.76-2.47,12.67-2.19,2.97-3.36-3.35-3.6-4.61-2.49-13.27-2.34-28.31-3.42-41.87-.42-5.32-.8-11.8-2.04-16.94-.05-.19-.61-2.47-.87-2.27-.87,2.91-1.3,5.95-1.67,8.97-1.35,11-1.02,22.49-3.13,33.29-.69,3.54-1.51,7.29-2.35,10.81-2.01,8.42-5.13,16.43-8.55,24.35l-1.29-.54c1.78-5.68,2.67-11.64,3.06-17.58.61-9.46.37-20.49,0-29.99-.22-5.82-.61-11.8-1.23-17.59-.42-3.93-.89-7.91-1.99-11.7-.3.21-.44.88-.53,1.22-1.78,6.34-2.17,15.56-2.68,22.26-.9,11.95-.96,24.61-2.93,36.39-.24,1.46-.86,5.81-2.31,6.42-1.88.79-2.59-4.04-2.81-5.21-2.15-11.29-2.16-23.79-2.96-35.29-.5-7.27-.84-17.89-2.83-24.71-.1-.35-.23-1.01-.53-1.22-.26.81-.65,2.08-1,3.67-.38,1.69-.61,3.48-1.08,7.04-.37,2.82-.41,3.09-.42,3.44-.08,1.67.02,3.53-.23,3.57-.15.02-.25-.6-.56-.62-.34-.02-.55.82-.7.79-.22-.05-.03-1.35-.03-1.35.57-3.96-.04-6.22,1.46-12.43.8-3.33,1.41-5.48,2.4-5.72,1.32-.32,1.85,1.67,2.13,2.62,1.48,5.06,1.87,12.38,2.31,17.74,1.12,13.8.86,29.34,3.57,42.79,0,.04.01.06.01.06.28,1.36.66,2.38,1.01,3.12Z"/><path class="cls-1" d="M168.32,265.17c.27-.12.37-.72.46-.99.82-2.64,1.17-6.12,1.51-8.9,1.57-13.05,1.71-26.22,2.93-39.3.39-4.17.8-9.04,1.76-13.08.29-1.23,1.28-5.19,3.14-3.13,1.39,1.54,2.18,9.14,2.45,11.47,1.58,13.85,1.6,27.89,3.06,41.76.34,3.24.78,8.82,1.87,11.74.08.22.15.51.42.58,1.24-4.13,1.71-8.49,2.14-12.78,1.47-14.4,1.4-29.09,3.23-43.43.26-2.01,1-8.19,2.28-9.5,1.58-1.63,2.46,1.38,2.79,2.56,3.43,12.08,1.75,26.79,4.01,39.29,1.31,7.26,3.16,14.72,5.32,21.76l2.41,5.93c-.3-2.51-.71-5.05-.91-7.57-.75-9.4-.66-20.96-.31-30.44.31-8.26,1.03-19,2.65-27.03.28-1.4,1.53-7.41,3.65-4.06,1.2,1.89,1.81,7.88,2.09,10.3,1.56,13.24,1.67,26.65,2.93,39.91.48,5.1,1.03,10.26,2.3,15.22.35-.16.42-.72.53-1.07,1.13-3.58,1.53-8.96,1.91-12.77,2.06-20.54,2.32-30.31,2.3-33.34,0-.13-.01-.59.27-.8.23-.17.63-.16.91.04.29.21.33.56.34.61-1.08,11.85-1.32,23.8-2.6,35.63-.29,2.68-1.1,11.04-2.53,12.92-1.75,2.3-2.77-1.7-3.05-2.9-.72-3.04-1.11-6.59-1.45-9.72-1.4-12.75-1.56-25.63-2.76-38.4-.47-4.95-.97-9.98-2.3-14.76-.31-.24-.8,1.97-.84,2.14-1.2,4.94-1.63,11.03-2.06,16.14-1.24,14.5-1.79,31.77-.14,46.18.53,4.61,1.51,8.95,2.74,13.41l-1.55-.09c-2.73-7.17-5.98-14.14-7.89-21.6-2.37-9.2-3.85-17.4-4.47-26.89-.64-9.77-.94-19.75-3.22-29.29-.39-.06-.24.04-.32.22-.91,2-1.36,6.31-1.65,8.6-2.05,16.5-1.5,33.6-4.02,49.98-.24,1.55-.91,6.07-1.96,7.06-2.18,2.06-3.1-3.61-3.32-4.79-2.9-15.56-2.37-32.74-4.02-48.61-.43-4.13-.86-8.57-2.22-12.47-.73,0-2.1,11.53-2.22,12.62-1.43,13.62-1.52,27.39-3.06,41-.28,2.46-1.06,9.99-2.32,11.76-.56.79-1.32,1.02-2.05.26-1.13-1.19-1.95-7.56-2.19-9.44-1.84-14.18-1.82-28.59-3.23-42.82-.45-4.54-.97-9.13-2.14-13.54-.35-.06-.24.02-.34.2-.56,1.02-.96,3.85-1.16,5.11-.88,5.38-1.29,11.2-1.71,16.65-.22,2.85-.13,6.07-.48,8.85-.15,1.18-.87,1.63-1.51.47.61-8.47.89-17.12,2.16-25.52.26-1.72.78-5.74,1.88-6.99,1.54-1.76,2.5.74,2.88,2.03.58,1.98.88,4.43,1.16,6.49,1.89,14.01,1.88,28.42,3.24,42.51.47,4.89.97,9.88,2.3,14.61Z"/><path class="cls-1" d="M200.45,194.64l.03-.59c.57-.24,1.23-.49,1.34-1.18.3-1.89-.2-4.45.01-6.42l-.26-.35-2.19-.49,4.82-1.69.08.46c1.75-.66,3.45-.39,4.69,1.06,1.19-1.07,1.98-1.52,3.66-1.37,3.82.34,4.04,5.71,3.96,8.58l2.23.45-4.74,1.83v-6.66c0-.19-.49-1.43-.64-1.66-.62-.93-2.39-1.36-3-.3.15,1.99-.32,4.63-.02,6.54.19,1.21,1.56.71,1.37,1.77h-5.2l-.15-.61c.52.06,1.44-.67,1.53-1.15.14-.76.08-3.73-.01-4.57s-.62-2.06-1.4-2.42c-.63-.29-2.09-.27-2.25.57.13,1.97-.19,4.18-.01,6.12.09.95.64,1.31,1.54,1.45l-.15.61h-5.2Z"/><path class="cls-1" d="M222.94,194.48v2.37c0,.81,1.86.86,1.53,1.76h-5.13c-.15,0-.33-.39-.16-.62.2-.28,1.28-.21,1.45-1.3.45-2.86-.33-6.81.02-9.79.18-.86-2.03-.4-1.47-1.3.13-.22,3.58-1.38,4.05-1.45,2.01-.31,3.41-.02,4.66,1.63,2.72,3.59.22,10.64-4.96,8.71ZM224.12,185.49c-.46.09-1.05.52-1.15.99-.17.76-.14,4.46-.04,5.33.22,1.89,2.69,1.78,3.29-.23.48-1.59.56-6.61-2.1-6.09Z"/><path class="cls-1" d="M275.57,192.26l1.46.53-.09.54c-2.96,1.03-6.37,2.87-8.69-.33-2.63-3.63-.22-10.45,4.87-8.62l-.06-2.15-2.07-.52,4.59-1.76v12.32ZM270.57,186.12c-1.14,1.08-1.09,5.49-.12,6.67.73.9,2.12.75,2.67-.22-.23-1.76.31-4.31,0-5.96-.2-1.05-1.85-1.14-2.54-.49Z"/><path class="cls-1" d="M257.67,183.93v6.81c0,.4.58,1.54.91,1.84.71.65,2.16.87,2.73-.04-.16-1.99.32-4.63.02-6.54-.11-.74-.84-1.1-1.52-1.16l.15-.61h5.2c.2,1.06-1.18.55-1.37,1.77-.17,1.09-.16,5.14-.02,6.27.13,1.05,1.55.15,1.53,1.28l-3.97,1.39v-.46c-3.45,1.34-5.83-1.43-6.12-4.67-.08-.87.19-2.87-.02-3.5-.18-.54-1.76-.16-1.51-.94.09-.27,3.43-1.35,3.97-1.46Z"/><path class="cls-1" d="M180.69,184.1l.17.58c-.48.17-1.58.48-1.51,1.11l3.04,8.07,3.21-8.2c.03-.6-1.01-.9-1.53-.98l.17-.59c1.27.07,2.81-.17,4.04-.03.41.05.8.35.44.63s-1.19.37-1.4,1.02l-5.09,13.5-5.32-13.42c-.15-.28-.4-.54-.65-.72-.52-.38-1.3-.26-.65-1.01l5.08.03Z"/><path class="cls-1" d="M198.74,186.2l-1.49.42.07,5.73,1.41.31.18.58c-2.53.84-5.52,2.6-8,.75s-2.57-6.19-.71-8.46c2.28-2.8,5.83-.95,8.57,0l-.03.66ZM192.39,193.06c.71.65,2.37.33,2.55-.64.13-.66.13-5.3,0-5.96-.19-1-1.83-1.31-2.55-.64-1.25,1.14-1.26,6.1,0,7.25Z"/><path class="cls-1" d="M281.84,191.27c.47,2.82,3.54,2.41,4.14-.15l1.37.38c.5.35-.83,2.06-1.17,2.35-1.61,1.38-4.19,1.29-5.64-.28-3-3.24-1.24-10.58,3.91-9.41.89.2,2.05,1.18,2.45,1.99,1.63,3.25-2.11,5.72-5.05,5.13ZM281.54,189.89c.89-.02,2.37.19,2.98-.62.91-1.21.64-3.73-1.21-3.66-1.72.07-1.91,3.01-1.77,4.28Z"/><path class="cls-1" d="M249.87,184.69c.71-.05,1.48.08,2.18-.04s1.13-.88,1.47-.17l-1.59,2.65c-.59-.21-.37-.39-.52-.84l-1.54-.07v6.81c0,.05.65.67.78.75.45.31.92,0,.75.85h-5.35c-.2-.82.44-.62.91-1,.11-.08.62-.71.62-.76v-6.66c-.7.07-1.53-.1-2.21,0-.53.08-1.04.77-1.46.22l1.6-2.66.36.17.17.67,1.54.07v-2.45l-2.29-.46s.09-.19.15-.23c1.09-.71,3.21-1.06,4.44-1.61v4.74Z"/><path class="cls-1" d="M234.87,179.95v13.08c0,.34,1.12,1.08,1.53,1l-.15.61h-5.2l.03-.59c.55-.23,1.26-.5,1.34-1.18v-10.4c-.1-.58-1.32-.51-1.83-.61-.16-.03-.49-.01-.45-.23l4.74-1.68Z"/><path class="cls-1" d="M241.76,183.93v9.1c0,.05.65.67.78.75.45.31.92,0,.75.85h-5.35c-.2-.84.56-.64,1.07-1.15.32-.31.42-.63.47-1.06.2-1.89-.15-4.17-.03-6.11-.12-.35-1.15-.4-1.51-.4.01-.16-.04-.36.02-.51.18-.45,3.17-1.25,3.8-1.48Z"/></g></svg>